<!-- Generated by IcoMoon.io -->
<svg version="1.1" xmlns="http://www.w3.org/2000/svg" width="32" height="32" viewBox="0 0 32 32">
<title>linkedin</title>
<path fill="#afb1b8" d="M27.425 22.859h0.006v-8.385c0-4.101-0.884-7.26-5.678-7.26-2.304 0-3.852 1.264-4.483 2.464h-0.066v-2.081h-4.547v15.261h4.734v-7.556c0-1.99 0.377-3.915 2.841-3.915 2.428 0 2.463 2.271 2.463 4.041v7.43h4.729zM4.949 7.597h4.74v15.262h-4.74v-15.262zM7.317 0c-1.516 0-2.745 1.229-2.745 2.745v0c0 1.514 1.23 2.771 2.745 2.771 1.514 0 2.744-1.255 2.744-2.771s-1.229-2.744-2.744-2.745h-0z"></path>
</svg>
