<!-- Generated by IcoMoon.io -->
<svg version="1.1" xmlns="http://www.w3.org/2000/svg" width="43" height="32" viewBox="0 0 43 32">
<title>mail</title>
<path fill="#2196f3" d="M38.683 0.004h-34.681c-2.206 0-4.002 1.795-4.002 4.002v24.010c0 2.206 1.795 4.002 4.002 4.002h34.681c2.206 0 4.002-1.795 4.002-4.002v-24.010c0-2.206-1.795-4.002-4.002-4.002zM38.683 2.672c0.181 0 0.355 0.037 0.512 0.104l-17.853 15.473-17.853-15.473c0.151-0.065 0.327-0.104 0.512-0.104h34.681zM38.683 29.35h-34.681c-0.737 0-1.334-0.597-1.334-1.334v0-22.423l17.799 15.428c0.233 0.203 0.539 0.327 0.875 0.327s0.642-0.124 0.877-0.328l-0.002 0.001 17.799-15.428v22.423c0 0.737-0.597 1.334-1.334 1.334v0z"></path>
</svg>
